# xmcd
#
# Track frame offsets: 
#        150
#        11107
#        34077
#        43960
#        62803
#        86486
#        99095
#        112945
#        128762
#        142492
#        186831
#        204093
#        227349
#        246160
#        261098
#        271049
#        289127
#
# Disc length: 4095 seconds
#
# Revision: 0
# Processed by: cddbd v1.4PL0 Copyright (c) Steve Scherf et al.
# Submitted via: ExactAudioCopy v0.90b4
#
DISCID=eb0ffd11
DTITLE=Van Morrison - Brighton 1990
DYEAR=1990
DGENRE=Celtic
TTITLE0=Lawdy Miss Clawdy
TTITLE1=Yeh Yeh
TTITLE2=I Will Be There
TTITLE3=Did Ye Get Healed ?
TTITLE4=It's All In The Game > Make It Real One More Time
TTITLE5=Orangefield
TTITLE6=Tore Down A La Rimbaud
TTITLE7=Just Like A Woman
TTITLE8=Gloria
TTITLE9=Moondance > Fever
TTITLE10=Green Onions
TTITLE11=Cat's Eyes
TTITLE12=Raglan Road
TTITLE13=Carrickfergus
TTITLE14=Full Force Gale
TTITLE15=When Will I Ever Learn To Live In God ?
TTITLE16=Dweller On The Threshold
EXTD=
EXTT0=
EXTT1=
EXTT2=
EXTT3=
EXTT4=
EXTT5=
EXTT6=
EXTT7=
EXTT8=
EXTT9=
EXTT10=
EXTT11=
EXTT12=
EXTT13=
EXTT14=
EXTT15=
EXTT16=
PLAYORDER=
